<svg width="190" height="65" viewBox="0 0 190 65" fill="none" xmlns="http://www.w3.org/2000/svg">
<path d="M47.1094 8.76648V8.76648C49.8953 11.5524 49.8953 16.0692 47.1094 18.8551L38.3165 27.648C35.5306 30.4338 31.0138 30.4338 28.2279 27.648V27.648L47.1094 8.76648Z" fill="white"/>
<path d="M19.7584 26.6238C22.5443 23.8379 27.0611 23.8379 29.847 26.6238V26.6238L10.1443 46.3265V46.3265C7.35842 43.5406 7.35842 39.0238 10.1443 36.2379L19.7584 26.6238Z" fill="white"/>
<path fill-rule="evenodd" clip-rule="evenodd" d="M44.154 39.4138C47.1936 39.4138 49.0447 42.6403 46.9848 44.8755C42.0964 50.18 35.0903 53.503 27.3081 53.503C12.5337 53.503 0.556641 41.5259 0.556641 26.7515C0.556641 11.977 12.5337 0 27.3081 0C35.5831 0 42.9805 3.75716 47.8876 9.65864C49.7622 11.9132 47.9126 14.9808 44.9804 14.9808V14.9808C43.7345 14.9808 42.5798 14.3769 41.7355 13.4607C38.1506 9.57066 33.0128 7.13373 27.3058 7.13373C16.4712 7.13373 7.68806 15.9169 7.68806 26.7515C7.68806 37.5861 16.4712 46.3692 27.3058 46.3692C32.6441 46.3692 37.4844 44.237 41.0215 40.7778C41.8664 39.9514 42.9721 39.4138 44.154 39.4138V39.4138Z" fill="white"/>
<path d="M116.984 0H125.984V54V54C121.014 54 116.984 49.9706 116.984 45V0Z" fill="white"/>
<rect x="125.984" y="45" width="15" height="9" fill="white"/>
<rect x="108.984" y="12" width="32" height="9" fill="white"/>
<rect x="60.9844" y="12" width="9" height="42" fill="white"/>
<path d="M90.9844 12V12C95.9549 12 99.9844 16.0294 99.9844 21V54H90.9844V12Z" fill="white"/>
<path d="M69.9844 21C69.9844 16.0294 74.0138 12 78.9844 12H90.9844V21H69.9844V21Z" fill="white"/>
<path d="M149.984 12H159.984V65H149.984V12Z" fill="white"/>
<rect x="159.984" y="44" width="20" height="9" fill="white"/>
<path d="M179.984 12V12C185.507 12 189.984 16.4772 189.984 22V43C189.984 48.5228 185.507 53 179.984 53V53V12Z" fill="white"/>
<path d="M159.984 21C159.984 16.0294 164.014 12 168.984 12H179.984V21H159.984V21Z" fill="white"/>
</svg>
